<?xml version="1.0" encoding="utf-8"?>
<!-- Generator: Adobe Illustrator 18.0.0, SVG Export Plug-In . SVG Version: 6.00 Build 0)  -->
<!DOCTYPE svg PUBLIC "-//W3C//DTD SVG 1.1//EN" "http://www.w3.org/Graphics/SVG/1.1/DTD/svg11.dtd">
<svg version="1.1" id="Layer_1" xmlns="http://www.w3.org/2000/svg" xmlns:xlink="http://www.w3.org/1999/xlink" x="0px" y="0px"
	 viewBox="0 0 612 792" enable-background="new 0 0 612 792" xml:space="preserve">
<g id="Layer_1_1_">
	<g display="none">
		<path display="inline" fill="#F38B00" d="M68.7,362.9l23.6-23.6c4.7-4.7,11.6,2.3,6.9,6.9l-23.6,23.6
			C71.1,374.5,64.2,367.4,68.7,362.9z M70.7,384.6l43.3-43.3c4.7-4.7,11.6,2.3,6.9,6.9l-43.3,43.3C73.1,396.2,66.2,389.2,70.7,384.6
			z M80.6,398.4l47.2-47.4c4.7-4.7,11.6,2.3,6.9,6.9l-47.2,47.4C82.9,409.8,75.9,402.9,80.6,398.4z M92.5,410.1l69-69
			c4.7-4.7,11.6,2.3,6.9,6.9l-69,69C94.7,421.7,87.8,414.8,92.5,410.1z M104.2,422l72.9-72.9c4.7-4.7,11.6,2.3,6.9,6.9l-72.9,72.9
			C106.6,433.6,99.5,426.7,104.2,422z M116.1,433.7l68.9-68.9c4.7-4.7,11.6,2.3,6.9,6.9l-69,69C118.3,445.3,111.4,438.4,116.1,433.7
			z M127.8,445.6l47.2-47.2c4.7-4.7,11.6,2.3,6.9,6.9l-47.2,47.2C130.2,457.2,123.3,450.3,127.8,445.6z"/>
		<g display="inline">
			<path fill="#7C6755" d="M280.3,402c4.8-3.3,8-8.4,8-14.6c0-10.8-10.1-18.5-21.1-18.5h-38.8c-2.1,0-4.1,2-4.1,4.1l-0.2,28.4
				c0,0.3,0,0.8,0,1.1l-0.2,28.4c0,2.1,1.8,4.1,4.1,4.1h38.9c11,0,21.1-7.7,21.1-18.5C288.1,410.4,284.9,405.3,280.3,402z
				 M267.2,427h-34.9v-20.9h34.9c7.7,0,12.9,5.3,12.9,10.5C280,421.7,274.9,427,267.2,427z M267.2,398h-34.9l0.2-20.9h34.7
				c7.7,0,12.9,5.3,12.9,10.5C280,392.7,274.9,398,267.2,398z"/>
			<path fill="#7C6755" d="M368.1,430.1l-32.5-59.7c-0.9-1.7-2.3-2-3.6-2s-2.6,0.3-3.6,2l-31.9,59.4c-2.6,4.8,4.5,8.6,7.1,3.8
				l7.8-14.4h41.5L361,434C363.6,438.7,370.7,434.8,368.1,430.1z M315.8,411l16.2-30.2l16.5,30.2H315.8z"/>
			<path fill="#7C6755" d="M459.7,435.2c-2.3,0-4.1-1.8-4.1-4.1v-58.6c0-2.3,1.8-4.1,4.1-4.1s4.1,1.8,4.1,4.1v58.6
				C463.9,433.4,461.9,435.2,459.7,435.2z"/>
			<path fill="#7C6755" d="M408.6,435.4c-17.4,0-25.7-6.3-31-11.7c-0.2-0.2-0.5-0.6-0.6-0.8c-0.5-1.1-0.6-3.2,1.1-4.5
				c1.5-1.4,3.5-1.1,4.5-0.5c0.2,0.2,0.8,0.6,0.9,0.8c2.4,2.7,9,9.5,26,9.5c11,0,22.9-3.3,22.9-12.3c0-8.7-11.9-9.8-24.4-11
				c-15.2-1.5-30.8-3-30.8-17c0-12.6,10.4-19.2,29.9-19.2c16.2,0,25,6.5,28.9,10.2c0.8,0.8,1.4,3-0.5,4.8c-1.7,1.5-3.6,1.2-4.7,0.6
				c-0.2-0.2-0.8-0.6-0.8-0.8c-5.4-5.4-13.4-8-23.2-8c-13.8,0-21.4,3.9-21.4,11c0,8.4,11.3,9.5,23.3,10.5
				c15.6,1.5,31.9,2.9,31.9,18.8C440.6,427.9,428.2,435.4,408.6,435.4z"/>
			<path fill="#7C6755" d="M511,435.4c-17.4,0-25.7-6.3-31-11.7c-0.2-0.2-0.5-0.6-0.6-0.8c-0.5-1.1-0.6-3.2,1.1-4.5
				c1.5-1.4,3.5-1.1,4.5-0.5c0.2,0.2,0.8,0.6,0.9,0.8c2.4,2.7,9,9.5,26.2,9.5c11,0,22.9-3.3,22.9-12.3c0-8.7-11.9-9.8-24.4-11
				c-15.2-1.5-30.8-3-30.8-17c0-12.6,10.4-19.2,29.9-19.2c16.2,0,25,6.5,28.9,10.2c0.8,0.8,1.4,3-0.5,4.8c-1.7,1.5-3.6,1.2-4.7,0.6
				c-0.2-0.2-0.6-0.6-0.8-0.8c-5.4-5.4-13.4-8-23.2-8c-13.8,0-21.4,3.9-21.4,11c0,8.4,11.3,9.5,23.3,10.5
				c15.6,1.5,31.9,2.9,31.9,18.8C543,427.9,530.7,435.4,511,435.4z"/>
		</g>
	</g>
	<path fill="#E5432E" d="M67.8,363.5l23.5-23.5c4.5-4.5,11.4,2.3,6.9,6.9l-23.5,23.5C70.2,374.9,63.3,368,67.8,363.5z M69.8,385
		l43-43c4.5-4.5,11.4,2.3,6.9,6.9l-43,42.9C72.2,396.5,65.3,389.5,69.8,385z M79.5,398.7l46.9-46.9c4.5-4.5,11.4,2.3,6.9,6.9
		l-46.9,46.8C82,410.1,75,403.2,79.5,398.7z M91.3,410.3l68.3-68.3c4.5-4.5,11.4,2.3,6.9,6.9l-68.3,68.3
		C93.5,421.9,86.8,414.9,91.3,410.3z M103,422l72.2-72.2c4.5-4.5,11.4,2.3,6.9,6.9l-72.2,72.2C105.3,433.4,98.5,426.7,103,422z
		 M114.7,433.7l68.3-68.3c4.5-4.5,11.4,2.3,6.9,6.9l-68.3,68.3C117,445.2,110.1,438.4,114.7,433.7z M126.5,445.5l46.9-46.9
		c4.5-4.5,11.4,2.3,6.9,6.9l-46.9,46.9C128.7,456.9,121.8,450.1,126.5,445.5z"/>
	<g>
		<path fill="#FFFFFF" d="M284.3,396.3c4.7-3.3,7.8-8.4,7.8-14.4c0-10.7-9.9-18.5-20.9-18.5h-38.5c-2.1,0-4.1,1.8-4.1,4.1l-0.2,28.3
			c0,0.3,0,0.8,0,1.1v28.4c0,2.1,1.8,4.1,4.1,4.1h38.8c11,0,20.9-7.7,20.9-18.5C292.2,404.7,289,399.6,284.3,396.3z M271.3,421.1
			h-34.7v-20.8h34.6c7.7,0,12.8,5.3,12.8,10.4C284.2,415.9,278.9,421.1,271.3,421.1z M271.3,392.3h-34.6l0.2-20.8h34.6
			c7.7,0,12.8,5.3,12.8,10.4C284.2,387,278.9,392.3,271.3,392.3z"/>
		<path fill="#FFFFFF" d="M371.6,424.3l-32.3-59.4c-0.9-1.7-2.3-2-3.6-2s-2.6,0.3-3.5,2L300.4,424c-2.6,4.7,4.5,8.6,7.1,3.8
			l7.7-14.4h41.2l8,14.7C367,432.7,374.1,428.9,371.6,424.3z M319.7,405.3l16.1-30.1l16.4,30.1H319.7z"/>
		<path fill="#FFFFFF" d="M462.7,429.4c-2.3,0-4.1-1.8-4.1-4.1v-58.2c0-2.3,1.8-4.1,4.1-4.1c2.3,0,4.1,1.8,4.1,4.1v58
			C466.7,427.4,464.9,429.4,462.7,429.4z"/>
		<path fill="#FFFFFF" d="M411.9,429.5c-17.3,0-25.6-6.3-30.8-11.7c-0.2-0.2-0.5-0.6-0.6-0.8c-0.5-1.1-0.6-3.2,1.1-4.5
			c1.5-1.4,3.5-1.1,4.5-0.5c0.2,0.2,0.8,0.6,0.9,0.8c2.4,2.7,9,9.3,25.9,9.3c11,0,22.7-3.2,22.7-12.3c0-8.6-11.7-9.8-24.2-11
			c-15-1.5-30.7-3-30.7-16.8c0-12.5,10.2-19.1,29.8-19.1c16.1,0,24.8,6.5,28.7,10.2c0.8,0.8,1.4,3-0.5,4.8c-1.5,1.5-3.6,1.2-4.7,0.6
			c-0.2-0.2-0.6-0.6-0.8-0.8c-5.4-5.3-13.2-8-23-8c-13.7,0-21.2,3.9-21.2,11c0,8.3,11.3,9.3,23.2,10.4c15.6,1.4,31.7,2.9,31.7,18.6
			C443.7,422,431.4,429.5,411.9,429.5z"/>
		<path fill="#FFFFFF" d="M513.5,429.5c-17.3,0-25.6-6.3-30.8-11.7c-0.2-0.2-0.5-0.6-0.6-0.8c-0.5-1.1-0.5-3.2,1.1-4.5
			c1.5-1.4,3.5-1.1,4.5-0.5c0.2,0.2,0.8,0.6,0.8,0.8c2.4,2.7,9,9.3,25.9,9.3c11,0,22.7-3.2,22.7-12.3c0-8.6-11.7-9.8-24.2-11
			c-15-1.5-30.7-3-30.7-16.8c0-12.5,10.2-19.1,29.8-19.1c16.1,0,24.8,6.5,28.7,10.2c0.8,0.8,1.4,3-0.5,4.8c-1.5,1.5-3.6,1.2-4.7,0.6
			c-0.2-0.2-0.6-0.6-0.8-0.8c-5.4-5.3-13.2-8-23-8c-13.7,0-21.4,3.9-21.4,11c0,8.3,11.3,9.3,23.2,10.4c15.6,1.4,31.7,2.9,31.7,18.6
			C545.4,422,533.2,429.5,513.5,429.5z"/>
	</g>
</g>
<g id="Layer_2" display="none">
	<g display="inline">
		<path fill="#6D6E71" d="M68.9,363.2l23.5-23.5c4.5-4.5,11.4,2.3,6.9,6.9l-23.6,23.5C71.1,374.8,64.2,367.9,68.9,363.2z
			 M70.8,384.7l43-43c4.5-4.5,11.4,2.3,6.9,6.9l-43.2,43C73.1,396.2,66.2,389.4,70.8,384.7z M80.6,398.4l46.9-46.9
			c4.5-4.5,11.4,2.3,6.9,6.9l-47.1,46.9C82.9,409.8,75.9,403.1,80.6,398.4z M92.3,410.1l68.3-68.3c4.5-4.5,11.4,2.3,6.9,6.9
			l-68.4,68.3C94.6,421.6,87.7,414.6,92.3,410.1z M103.9,421.9l72.2-72.2c4.5-4.5,11.4,2.3,6.9,6.9l-72.2,72.2
			C106.3,433.3,99.4,426.4,103.9,421.9z M115.6,433.6l68.3-68.3c4.5-4.5,11.4,2.3,6.9,6.9l-68.3,68.3
			C118,445,111.1,438.1,115.6,433.6z M127.4,445.3l46.9-46.9c4.5-4.5,11.4,2.3,6.9,6.9l-46.9,46.9
			C129.6,456.7,122.9,449.8,127.4,445.3z"/>
		<text transform="matrix(1 0 0 1 583.4277 398.9393)" font-family="'MuseoSans-300'" font-size="34.7969">an Intel  </text>
		<text transform="matrix(1 0 0 1 583.4277 435.4794)" font-family="'MuseoSans-300'" font-size="34.7969">company</text>
		<g>
			<path d="M285.2,402c4.7-3.3,7.8-8.4,7.8-14.4c0-10.7-9.9-18.5-20.9-18.5h-38.5c-2.1,0-4.1,1.8-4.1,4.1l-0.2,28.3
				c0,0.3,0,0.8,0,1.1l-0.2,28.3c0,2.1,1.8,4.1,4.1,4.1h38.8c11,0,20.9-7.7,20.9-18.5C293.1,410.4,289.9,405.3,285.2,402z
				 M272.3,427h-34.7v-20.8h34.6c7.7,0,12.8,5.3,12.8,10.4C285.1,421.7,280,427,272.3,427z M272.3,398.1h-34.6l0.2-20.8h34.6
				c7.7,0,12.8,5.3,12.8,10.4C285.1,392.8,280,398.1,272.3,398.1z"/>
			<path d="M372.6,430l-32.3-59.4c-0.9-1.7-2.3-2-3.6-2c-1.4,0-2.6,0.3-3.5,2l-31.7,59.1c-2.6,4.7,4.5,8.6,7.1,3.8l7.7-14.4h41.2
				l8,14.7C368.1,438.6,375,434.6,372.6,430z M320.6,411l16.1-30.1l16.4,30.1H320.6z"/>
			<path d="M463.6,435.1c-2.3,0-4.1-1.8-4.1-4.1v-58.2c0-2.3,1.8-4.1,4.1-4.1s4.1,1.8,4.1,4.1V431
				C467.6,433.3,465.8,435.1,463.6,435.1z"/>
			<path d="M412.8,435.4c-17.3,0-25.6-6.3-30.8-11.7c-0.2-0.2-0.5-0.6-0.6-0.8c-0.5-1.1-0.6-3.2,1.1-4.5c1.5-1.4,3.5-1.1,4.5-0.5
				c0.2,0.2,0.8,0.6,0.9,0.8c2.4,2.7,9,9.3,25.9,9.3c11,0,22.7-3.2,22.7-12.3c0-8.6-11.7-9.8-24.2-11c-15-1.5-30.7-3-30.7-16.8
				c0-12.5,10.2-19.1,29.8-19.1c16.1,0,24.8,6.5,28.7,10.2c0.8,0.8,1.4,3-0.5,4.8c-1.5,1.5-3.6,1.2-4.7,0.6
				c-0.2-0.2-0.6-0.6-0.8-0.8c-5.4-5.3-13.2-8-23-8c-13.7,0-21.2,3.9-21.2,11c0,8.3,11.3,9.3,23.2,10.4c15.6,1.4,31.7,2.9,31.7,18.6
				C444.6,427.9,432.5,435.4,412.8,435.4z"/>
			<path d="M514.6,435.4c-17.3,0-25.6-6.3-30.8-11.7c-0.2-0.2-0.5-0.6-0.6-0.8c-0.5-1.1-0.5-3.2,1.1-4.5c1.5-1.4,3.5-1.1,4.5-0.5
				c0.2,0.2,0.8,0.6,0.8,0.8c2.4,2.7,9,9.3,25.9,9.3c11,0,22.7-3.2,22.7-12.3c0-8.6-11.7-9.8-24.2-11c-15-1.5-30.7-3-30.7-16.8
				c0-12.5,10.2-19.1,29.8-19.1c16.1,0,24.8,6.5,28.7,10.2c0.8,0.8,1.4,3-0.5,4.8c-1.5,1.5-3.6,1.2-4.7,0.6
				c-0.2-0.2-0.6-0.6-0.8-0.8c-5.4-5.3-13.2-8-23-8c-13.7,0-21.4,3.9-21.4,11c0,8.3,11.3,9.3,23.2,10.4c15.6,1.4,31.7,2.9,31.7,18.6
				C546.4,427.9,534.1,435.4,514.6,435.4z"/>
		</g>
	</g>
</g>
</svg>
